<?xml version="1.0" encoding="utf-8"?>
<!-- Generator: Adobe Illustrator 24.0.2, SVG Export Plug-In . SVG Version: 6.00 Build 0)  -->
<svg version="1.1" xmlns="http://www.w3.org/2000/svg" xmlns:xlink="http://www.w3.org/1999/xlink" x="0px" y="0px"
	 viewBox="0 0 800 600" style="enable-background:new 0 0 800 600;" xml:space="preserve">
<style type="text/css">
	.st0{fill:none;stroke:#E86F37;stroke-width:6;stroke-miterlimit:10;}
	.st1{fill:#548389;}
	.st2{fill:#E86F37;}
	.st3{fill:#E86F37;stroke:#E86F37;stroke-width:2;stroke-miterlimit:10;}
	.st4{fill:none;stroke:#E86F37;stroke-width:6;stroke-linecap:round;stroke-linejoin:round;stroke-miterlimit:10;}
	.st5{fill:none;stroke:#E86F37;stroke-width:4;stroke-miterlimit:10;}
	.st6{fill:none;stroke:#E86F37;stroke-width:5;stroke-linecap:round;stroke-linejoin:round;stroke-miterlimit:10;}
	.st7{fill:none;stroke:#E86F37;stroke-width:5;stroke-miterlimit:10;}
	.st8{fill:none;stroke:#E86F37;stroke-width:3;stroke-miterlimit:10;}
	.st9{fill:none;stroke:#E86F37;stroke-width:3;stroke-linecap:round;stroke-linejoin:round;stroke-miterlimit:10;}
	.st10{fill:#FFFFFF;stroke:#E86F37;stroke-width:6;stroke-miterlimit:10;}
	.st11{fill:#135868;}
	.st12{font-family:'Beon-Medium';}
	.st13{font-size:122.9262px;}
	.st14{fill:#427986;}
	.st15{font-size:53.2693px;}
	.st16{font-size:31px;}
</style>
<g id="Layer_2">
</g>
<g id="Layer_1">
	<g>
		<path class="st0" d="M1450.56,435.13l-117.95,61.27c-7.79,4.05-17.04,4.14-24.91,0.24L1183.24,435
			c-9.38-4.64-15.31-14.2-15.31-24.67V125.05c0-8.93,4.85-17.16,12.69-21.43c19.75-10.77,62.99-28.6,132.87-28.6
			c70.24,0,116.93,18.18,138.38,28.92c8.29,4.15,13.54,12.6,13.54,21.87V410.7C1465.4,420.97,1459.68,430.39,1450.56,435.13z"/>
		<g>
			<g>
				<path class="st1" d="M1203.21,47.61c0.8,0.08,1.37,0.74,1.24,1.48c-1.41,10.13-1.98,15.18-2.84,25.26
					c-0.09,0.74-0.77,1.3-1.52,1.24c-0.76-0.07-1.33-0.71-1.25-1.45c0.8-10.09,1.34-15.15,2.7-25.29
					C1201.66,48.1,1202.41,47.53,1203.21,47.61z M1214.24,59.12c0.21,0.73-0.21,1.46-0.98,1.69c-2.9,0.86-4.34,1.31-7.23,2.24
					c-0.77,0.25-1.53-0.11-1.76-0.84c-0.23-0.72,0.18-1.47,0.95-1.71c2.91-0.93,4.36-1.38,7.28-2.25
					C1213.27,58.01,1214.03,58.4,1214.24,59.12z M1225.28,67.79c-0.58,0.48-1.46,0.39-1.95-0.17c-6.55-8.13-13.47-16.08-20.6-23.71
					c-0.53-0.53-0.44-1.41,0.19-1.93c0.63-0.52,1.58-0.49,2.11,0.05c7.09,7.67,13.96,15.67,20.46,23.85
					C1225.97,66.45,1225.87,67.31,1225.28,67.79z"/>
				<path class="st1" d="M1232.4,66.06c-0.75,0.19-1.47-0.23-1.66-0.97c-2.3-9.23-4.6-18.47-6.89-27.71
					c-0.18-0.74,0.31-1.46,1.13-1.66c0.82-0.2,1.59,0.21,1.76,0.95c2.22,9.25,4.45,18.51,6.67,27.76
					C1233.6,65.17,1233.16,65.87,1232.4,66.06z M1230.24,42.21c0.64-0.47,1.56-0.41,2.04,0.17c6.45,7.22,9.55,10.89,15.51,18.36
					c0.44,0.59,0.33,1.43-0.28,1.87s-1.47,0.34-1.92-0.25c-5.99-7.43-9.11-11.08-15.6-18.26
					C1229.5,43.54,1229.6,42.68,1230.24,42.21z M1258.12,29.29c0.79,0.24,1.2,0.99,0.91,1.71c-3.86,9.86-5.62,14.81-8.82,24.74
					c-0.24,0.73-1.01,1.14-1.76,0.92c-0.75-0.22-1.18-0.95-0.94-1.68c3.14-9.95,4.88-14.92,8.69-24.81
					C1256.49,29.45,1257.33,29.04,1258.12,29.29z M1262.15,60.13c-0.76,0.12-1.44-0.36-1.56-1.11c-1.24-7.86-1.86-11.79-3.1-19.65
					c-0.12-0.75,0.41-1.42,1.23-1.55c0.81-0.13,1.52,0.35,1.64,1.1c1.17,7.87,1.76,11.81,2.94,19.68
					C1263.42,59.35,1262.92,60.01,1262.15,60.13z"/>
				<path class="st1" d="M1268.67,27.7c0.84-0.1,1.54,0.4,1.63,1.15c1.12,9.45,2.24,18.9,3.37,28.35c0.09,0.75-0.43,1.4-1.2,1.49
					c-0.77,0.09-1.43-0.41-1.52-1.16c-1.2-9.44-2.4-18.88-3.59-28.32C1267.27,28.46,1267.83,27.8,1268.67,27.7z"/>
				<path class="st1" d="M1296.55,28.65c-0.7-0.23-1.44-0.37-2.18-0.47c-0.74-0.09-1.48-0.14-2.22-0.1
					c-0.74,0.04-1.47,0.18-2.19,0.36c-0.73,0.18-1.45,0.41-2.11,0.73c-0.67,0.32-1.33,0.68-1.93,1.08c-0.75,0.5-1.41,1.1-1.97,1.73
					c-0.58,0.65-1.1,1.39-1.52,2.15c-0.42,0.75-0.79,1.55-1.05,2.38c-0.19,0.6-0.33,1.19-0.46,1.83c-0.13,0.64-0.22,1.28-0.25,1.91
					c-0.04,0.63-0.03,1.26,0.03,1.88c0,0,0.02,0.18,0.02,0.27c0,0,0.02,0.18,0.03,0.27c0.11,0.66,0.27,1.32,0.47,1.97
					c0.2,0.65,0.45,1.3,0.74,1.9c0.29,0.6,0.64,1.2,1,1.74c0.38,0.58,0.8,1.14,1.32,1.67c0.51,0.54,1.09,1.02,1.66,1.47
					c0.54,0.43,1.13,0.85,1.76,1.16c0.62,0.31,1.29,0.57,1.95,0.79c0.66,0.22,1.36,0.35,2.05,0.44s1.39,0.13,2.07,0.09
					c0.91-0.06,1.82-0.24,2.68-0.51c0.86-0.27,1.66-0.66,2.42-1.15c1.74-1.11,3.06-2.89,3.42-4.83c0.08-0.36,0.15-1.08,0.12-1.79
					c-0.06-1.82-0.09-2.73-0.16-4.55c-0.03-0.76,0.57-1.36,1.38-1.38c0.81-0.03,1.44,0.54,1.46,1.3c0.05,1.8,0.07,2.7,0.12,4.5
					c0.01,0.22,0.04,1.43-0.12,2.37c-0.57,2.87-2.48,5.2-4.7,6.63c-0.98,0.62-2.05,1.12-3.12,1.48c-1.07,0.37-2.2,0.56-3.33,0.63
					c-0.86,0.05-1.73,0.02-2.6-0.1c-0.87-0.12-1.71-0.33-2.55-0.58c-0.84-0.25-1.65-0.59-2.41-0.97c-0.77-0.39-1.5-0.86-2.19-1.38
					c-0.69-0.52-1.34-1.09-1.96-1.7c-0.61-0.61-1.16-1.28-1.63-2c-0.44-0.66-0.84-1.4-1.19-2.12c-0.35-0.73-0.67-1.5-0.89-2.29
					c-0.22-0.78-0.4-1.57-0.53-2.37c-0.01-0.09-0.02-0.18-0.03-0.27c-0.01-0.09-0.02-0.18-0.03-0.27c-0.07-0.75-0.11-1.51-0.09-2.28
					c0.02-0.76,0.09-1.49,0.21-2.22c0.12-0.73,0.28-1.49,0.51-2.2c0.31-0.96,0.74-1.91,1.24-2.81c0.5-0.9,1.11-1.76,1.82-2.59
					c0.71-0.82,1.54-1.6,2.42-2.22c0.72-0.51,1.55-0.98,2.42-1.35c0.86-0.38,1.73-0.66,2.66-0.91c0.93-0.24,1.86-0.39,2.8-0.45
					c0.94-0.06,1.88-0.02,2.83,0.11c0.95,0.13,1.85,0.31,2.75,0.58c0.9,0.27,1.76,0.63,2.56,1.05c0.7,0.37,0.93,1.21,0.51,1.85
					c-0.42,0.64-1.34,0.85-2.04,0.49c-0.64-0.33-1.35-0.61-2.05-0.84C1296.5,28.74,1296.52,28.71,1296.55,28.65z M1288.79,41.77
					c-0.05-0.76,0.57-1.38,1.38-1.44c3.59-0.23,5.39-0.32,8.98-0.46c0.81-0.04,1.45,0.56,1.48,1.32c0.03,0.76-0.61,1.36-1.41,1.4
					c-3.56,0.14-5.35,0.23-8.91,0.45C1289.5,43.11,1288.84,42.53,1288.79,41.77z"/>
				<path class="st1" d="M1340.26,41.37c-0.61,8.5-7.58,15.08-15.78,14.85c-8.21-0.23-14.8-7.19-14.92-15.71
					c-0.12-8.52,6.86-15.76,15.81-15.51C1334.32,25.26,1340.86,32.87,1340.26,41.37z M1324.51,53.55
					c6.58,0.18,12.41-5.16,12.87-12.37s-5.06-13.3-12.13-13.5c-7.07-0.2-12.93,5.57-12.88,12.8
					C1312.4,47.71,1317.93,53.36,1324.51,53.55z"/>
				<path class="st1" d="M1366.09,51.43c-0.33,2.25-1.68,4.13-3.37,5.29c-1.18,0.83-2.53,1.32-3.89,1.55
					c-1.36,0.23-2.73,0.24-4.04,0.09c-0.02,0-0.03,0-0.05-0.01c-1.53-0.18-3.05-0.58-4.44-1.2c-1.43-0.65-2.77-1.6-3.81-2.83
					c-1.42-1.7-2.2-3.91-2.01-6.13c0.01-0.09,0.02-0.18,0.02-0.27c0.11-0.75,0.81-1.27,1.6-1.16c0.79,0.11,1.34,0.79,1.27,1.55
					c0,0-0.01,0.13-0.02,0.18c-0.15,1.45,0.37,3.04,1.37,4.21c0.75,0.88,1.73,1.61,2.83,2.13c1.1,0.52,2.3,0.83,3.58,0.98
					c0.02,0,0.03,0,0.05,0.01c1.09,0.13,2.15,0.12,3.19-0.06c1.04-0.18,2.01-0.55,2.83-1.12c1.18-0.83,2.02-2.16,2.21-3.53
					c0.01-0.04,0.01-0.05,0.01-0.09c0.1-0.75,0.79-1.29,1.58-1.18c0.79,0.11,1.35,0.78,1.24,1.53c-0.01,0.05-0.01,0.08-0.02,0.13
					C1366.17,51.47,1366.14,51.46,1366.09,51.43z M1362.8,32.02c-1.37-1.21-3.19-1.75-4.66-1.92c-0.04,0-0.06-0.01-0.1-0.01
					c-0.93-0.11-1.82-0.07-2.68,0.1c-0.86,0.18-1.68,0.49-2.32,0.96c-1.17,0.87-1.49,2.01-1.58,2.53c-0.13,0.74-0.86,1.26-1.67,1.14
					c-0.81-0.12-1.38-0.8-1.27-1.55c0.13-0.88,0.64-2.77,2.51-4.2c1.02-0.8,2.27-1.32,3.53-1.57c1.2-0.24,2.46-0.23,3.64-0.09
					c0.04,0,0.06,0.01,0.1,0.01c2.31,0.27,4.61,1.14,6.33,2.68c1.77,1.58,2.91,3.97,2.71,6.41c-0.06,0.75-0.77,1.29-1.59,1.22
					c-0.82-0.07-1.41-0.74-1.36-1.49c0.12-1.64-0.69-3.24-1.84-4.25C1362.66,32,1362.71,32.01,1362.8,32.02z M1352.91,38
					c1.29,1.53,3.1,2.49,4.28,3.03c1.95,0.95,4.53,1.86,6.4,3.56c0.43,0.37,0.86,0.79,1.21,1.25c0.44,0.58,0.27,1.44-0.35,1.84
					c-0.63,0.41-1.5,0.24-1.94-0.36c-0.24-0.3-0.53-0.61-0.83-0.88c-1.49-1.32-3.64-2.05-5.76-3.05c-1.89-0.89-3.82-2.08-5.29-3.79
					c-0.43-0.54-0.8-1.12-1.13-1.72c-0.36-0.66-0.1-1.44,0.61-1.78c0.71-0.33,1.56-0.07,1.93,0.59c0.25,0.43,0.54,0.86,0.88,1.26
					C1352.92,37.97,1352.92,37.98,1352.91,38z"/>
				<path class="st1" d="M1387.46,31.83c0.83,0.16,1.35,0.86,1.2,1.6c-1.88,9.33-3.76,18.66-5.63,27.99
					c-0.15,0.74-0.84,1.19-1.6,1.05c-0.76-0.15-1.23-0.83-1.09-1.57c1.8-9.35,3.6-18.69,5.41-28.03
					C1385.89,32.12,1386.63,31.67,1387.46,31.83z M1393.54,33.08c0.72,0.2,1.49,0.41,2.19,0.66c1.74,0.66,3.42,1.54,4.87,2.71
					c1.45,1.17,2.67,2.62,3.49,4.23c0.9,1.79,1.33,3.74,1.39,5.64c0.06,1.9-0.22,3.77-0.68,5.54c-0.01,0.03-0.01,0.05-0.02,0.09
					c-0.47,1.81-1.13,3.65-2.1,5.31c-1,1.71-2.34,3.32-4.02,4.51c-2.2,1.57-4.61,2.23-6.66,2.41c-1.15,0.1-2.33,0.09-3.43-0.13
					c-0.22-0.04-0.45-0.1-0.71-0.15c-0.22-0.05-0.4-0.09-0.67-0.14c-0.8-0.17-1.2-0.26-2-0.42c-0.76-0.16-1.22-0.84-1.07-1.59
					c0.15-0.74,0.85-1.19,1.62-1.03c0.84,0.18,1.27,0.26,2.11,0.45c0.23,0.05,0.4,0.09,0.58,0.13c0.22,0.05,0.41,0.09,0.58,0.13
					c0.88,0.17,1.84,0.18,2.75,0.11c1.59-0.14,3.51-0.67,5.23-1.89c1.31-0.92,2.41-2.22,3.25-3.66c0.82-1.4,1.42-2.96,1.83-4.6
					c0.01-0.03,0.01-0.05,0.02-0.09c0.4-1.6,0.62-3.25,0.57-4.87c-0.05-1.57-0.42-3.15-1.14-4.55c-0.64-1.26-1.59-2.4-2.74-3.31
					c-1.15-0.91-2.51-1.63-4-2.18c-0.6-0.22-1.17-0.39-1.79-0.57c-0.66-0.14-0.98-0.21-1.64-0.35c-0.82-0.17-1.33-0.87-1.18-1.61
					c0.15-0.74,0.9-1.18,1.73-1.01c0.68,0.14,1.02,0.21,1.7,0.36C1393.59,33.14,1393.57,33.12,1393.54,33.08z"/>
				<path class="st1" d="M1438.84,62.43c-2.93,8-11.53,12.37-19.43,9.86c-7.9-2.51-12.36-11.03-10.12-19.25s10.98-13.24,19.6-10.51
					C1437.49,45.27,1441.77,54.43,1438.84,62.43z M1420.17,69.72c6.33,2.01,13.48-1.48,15.91-8.29c2.43-6.81-1.26-14.21-8.06-16.37
					c-6.81-2.16-14.07,1.76-16.02,8.72C1410.05,60.75,1413.84,67.71,1420.17,69.72z"/>
			</g>
		</g>
		<g>
			<text transform="matrix(1 0 0 1 1194.303 262.3635)" class="st11 st12 st13">Cﾃグ</text>
		</g>
		<text transform="matrix(1 0 0 1 1266.259 137.8176)" class="st14 st12 st15">PAR</text>
		<ellipse class="st2" cx="1394.91" cy="241.35" rx="18.57" ry="21.81"/>
		<ellipse class="st2" cx="1238.69" cy="240.56" rx="18.57" ry="21.81"/>
		<path class="st3" d="M1287.64,295.09h50.21c2.29,0,3.65,2.55,2.38,4.45l-26.08,37.78c-1.13,1.7-1.35,2.01-2.48,0.31l-26.42-38.1
			C1283.99,297.64,1285.35,295.09,1287.64,295.09z"/>
		<g>
			<path class="st4" d="M1212.37,339.11c0,0,6.11,42.32,40.43,48.43c34.32,6.11,60.42-24.21,59.95-48.43"/>
			<path class="st4" d="M1312.75,339.81c0,0,6.11,41.1,40.43,47.04c34.32,5.94,60.42-23.52,59.95-47.04h-0.76"/>
			<path class="st0" d="M1358.78,387.63c0.45,3.39,0.69,6.87,0.69,10.43c0,33.21-20.64,60.12-46.11,60.12s-46.11-26.92-46.11-60.12
				c0-3.31,0.21-6.56,0.6-9.72"/>
			<path class="st4" d="M1313.48,350.13c-0.26,0.71,0,61.36,0,61.36"/>
		</g>
		<text transform="matrix(0.9003 0.4353 -0.4353 0.9003 1186.1361 474.1644)" class="st1 st12 st16">lauro</text>
		<text transform="matrix(0.8888 -0.4583 0.4583 0.8888 1354.7826 521.5298)" class="st1 st12 st16">muller</text>
	</g>
	<g>
		<path class="st5" d="M1880.53,376.6l-81.64,42.41c-5.39,2.8-11.8,2.86-17.24,0.17l-86.15-42.66c-6.49-3.21-10.6-9.83-10.6-17.07
			V161.98c0-6.18,3.36-11.87,8.78-14.83c13.67-7.45,43.6-19.8,91.96-19.8c48.61,0,80.93,12.58,95.78,20.01
			c5.74,2.87,9.37,8.72,9.37,15.14v197.19C1890.8,366.8,1886.84,373.32,1880.53,376.6z"/>
		<g>
			<g>
				<path class="st1" d="M1709.34,108.39c0.55,0.05,0.95,0.51,0.86,1.02c-0.98,7.01-1.37,10.51-1.97,17.49
					c-0.06,0.51-0.53,0.9-1.06,0.86c-0.52-0.05-0.92-0.49-0.86-1.01c0.56-6.98,0.93-10.49,1.87-17.51
					C1708.27,108.73,1708.79,108.34,1709.34,108.39z M1716.98,116.36c0.15,0.5-0.15,1.01-0.68,1.17c-2.01,0.6-3.01,0.91-5,1.55
					c-0.53,0.17-1.06-0.08-1.22-0.58c-0.16-0.5,0.12-1.01,0.66-1.19c2.01-0.65,3.02-0.96,5.04-1.56
					C1716.3,115.59,1716.83,115.86,1716.98,116.36z M1724.62,122.36c-0.4,0.33-1.01,0.27-1.35-0.12c-5.45-6.71-8.3-9.99-14.26-16.41
					c-0.37-0.37-0.3-0.97,0.13-1.33c0.43-0.36,1.09-0.34,1.46,0.03c5.92,6.46,8.76,9.76,14.16,16.51
					C1725.1,121.44,1725.02,122.03,1724.62,122.36z"/>
				<path class="st1" d="M1729.55,121.16c-0.52,0.13-1.02-0.16-1.15-0.67c-1.91-7.67-2.87-11.51-4.77-19.18
					c-0.13-0.51,0.21-1.01,0.78-1.15s1.1,0.15,1.22,0.66c1.84,7.69,2.77,11.53,4.62,19.21
					C1730.38,120.54,1730.07,121.03,1729.55,121.16z M1728.05,104.66c0.44-0.33,1.08-0.28,1.41,0.11
					c4.46,4.99,6.61,7.54,10.73,12.71c0.31,0.41,0.23,0.99-0.2,1.3c-0.42,0.3-1.02,0.24-1.32-0.17c-4.15-5.14-6.31-7.67-10.8-12.64
					C1727.54,105.57,1727.61,104.98,1728.05,104.66z M1747.35,95.71c0.55,0.17,0.83,0.69,0.63,1.19c-2.67,6.82-3.89,10.25-6.1,17.12
					c-0.17,0.5-0.7,0.79-1.22,0.64c-0.52-0.15-0.82-0.66-0.65-1.16c2.18-6.89,3.38-10.33,6.01-17.17
					C1746.22,95.82,1746.8,95.54,1747.35,95.71z M1750.14,117.05c-0.53,0.08-1-0.25-1.08-0.77c-0.86-5.44-1.29-8.16-2.14-13.6
					c-0.08-0.52,0.29-0.98,0.85-1.07c0.56-0.09,1.05,0.25,1.13,0.76c0.81,5.45,1.22,8.17,2.04,13.62
					C1751.01,116.51,1750.67,116.97,1750.14,117.05z"/>
				<path class="st1" d="M1754.65,94.61c0.58-0.07,1.07,0.27,1.13,0.8c0.93,7.85,1.39,11.78,2.33,19.62
					c0.06,0.52-0.3,0.97-0.83,1.03c-0.53,0.07-0.99-0.28-1.05-0.8c-1-7.84-1.49-11.76-2.49-19.61
					C1753.68,95.14,1754.07,94.68,1754.65,94.61z"/>
				<path class="st1" d="M1773.95,95.27c-0.48-0.16-1-0.26-1.51-0.32c-0.51-0.06-1.03-0.1-1.54-0.07c-0.51,0.03-1.01,0.13-1.52,0.25
					c-0.5,0.13-1,0.28-1.46,0.5c-0.46,0.22-0.92,0.47-1.34,0.75c-0.52,0.35-0.97,0.76-1.36,1.2c-0.4,0.45-0.77,0.96-1.06,1.48
					c-0.29,0.52-0.55,1.07-0.73,1.65c-0.13,0.41-0.23,0.83-0.32,1.27c-0.09,0.44-0.15,0.88-0.18,1.32c-0.02,0.44-0.02,0.87,0.02,1.3
					c0,0,0.01,0.12,0.02,0.18c0,0,0.01,0.12,0.02,0.18c0.08,0.46,0.19,0.91,0.33,1.36c0.14,0.45,0.31,0.9,0.51,1.32
					c0.2,0.42,0.44,0.83,0.69,1.21c0.27,0.4,0.56,0.79,0.91,1.16c0.36,0.37,0.75,0.71,1.15,1.02c0.38,0.29,0.78,0.59,1.22,0.8
					s0.89,0.4,1.35,0.55c0.46,0.15,0.94,0.24,1.42,0.3c0.48,0.06,0.96,0.09,1.43,0.06c0.63-0.04,1.26-0.17,1.85-0.35
					c0.59-0.19,1.15-0.46,1.68-0.79c1.21-0.77,2.12-2,2.36-3.34c0.06-0.25,0.1-0.75,0.09-1.24c-0.04-1.26-0.06-1.89-0.11-3.15
					c-0.02-0.52,0.4-0.94,0.95-0.96c0.56-0.02,1,0.37,1.01,0.9c0.03,1.25,0.05,1.87,0.08,3.12c0,0.15,0.03,0.99-0.08,1.64
					c-0.4,1.99-1.72,3.6-3.25,4.59c-0.68,0.43-1.42,0.77-2.16,1.03c-0.74,0.25-1.52,0.39-2.31,0.44c-0.6,0.04-1.2,0.01-1.8-0.07
					c-0.6-0.08-1.18-0.23-1.76-0.4c-0.58-0.17-1.14-0.41-1.67-0.67c-0.53-0.27-1.03-0.59-1.51-0.96c-0.48-0.36-0.93-0.75-1.36-1.18
					c-0.42-0.43-0.8-0.89-1.13-1.38c-0.31-0.46-0.58-0.97-0.82-1.47c-0.25-0.5-0.46-1.04-0.62-1.58c-0.15-0.54-0.27-1.09-0.36-1.64
					c-0.01-0.06-0.01-0.12-0.02-0.18c-0.01-0.06-0.01-0.12-0.02-0.18c-0.05-0.52-0.07-1.05-0.06-1.58c0.01-0.53,0.06-1.03,0.14-1.54
					c0.08-0.5,0.19-1.03,0.35-1.52c0.21-0.66,0.51-1.32,0.86-1.95c0.35-0.62,0.77-1.22,1.26-1.79c0.49-0.57,1.07-1.11,1.68-1.54
					c0.5-0.36,1.08-0.68,1.67-0.94s1.2-0.46,1.84-0.63c0.64-0.17,1.29-0.27,1.94-0.31c0.65-0.04,1.3-0.02,1.96,0.07
					c0.65,0.09,1.28,0.21,1.9,0.4c0.62,0.19,1.22,0.44,1.77,0.73c0.49,0.26,0.64,0.84,0.36,1.28c-0.29,0.44-0.93,0.59-1.41,0.34
					c-0.44-0.23-0.93-0.42-1.42-0.58C1773.91,95.33,1773.92,95.31,1773.95,95.27z M1768.58,104.35c-0.04-0.52,0.39-0.96,0.95-1
					c2.48-0.16,3.73-0.22,6.21-0.32c0.56-0.02,1,0.39,1.02,0.92c0.02,0.52-0.42,0.94-0.98,0.97c-2.47,0.1-3.7,0.16-6.17,0.31
					C1769.07,105.28,1768.61,104.87,1768.58,104.35z"/>
				<path class="st1" d="M1804.2,104.07c-0.42,5.88-5.24,10.44-10.92,10.28c-5.68-0.16-10.24-4.98-10.32-10.87
					c-0.08-5.9,4.75-10.9,10.94-10.73S1804.62,98.19,1804.2,104.07z M1793.3,112.5c4.55,0.13,8.59-3.57,8.9-8.56
					c0.32-4.99-3.51-9.21-8.4-9.34c-4.89-0.14-8.95,3.86-8.92,8.86C1784.92,108.46,1788.75,112.37,1793.3,112.5z"/>
				<path class="st1" d="M1822.08,111.04c-0.23,1.56-1.16,2.86-2.33,3.66c-0.82,0.57-1.75,0.91-2.69,1.07
					c-0.94,0.16-1.89,0.17-2.8,0.06c-0.01,0-0.02,0-0.03,0c-1.06-0.12-2.11-0.4-3.07-0.83c-0.99-0.45-1.92-1.11-2.63-1.96
					c-0.99-1.17-1.52-2.71-1.39-4.24c0-0.06,0.01-0.12,0.02-0.18c0.08-0.52,0.56-0.88,1.11-0.8s0.93,0.55,0.88,1.07
					c0,0-0.01,0.09-0.01,0.12c-0.09,1.01,0.26,2.1,0.95,2.91c0.52,0.61,1.2,1.11,1.96,1.47c0.76,0.36,1.59,0.58,2.47,0.68
					c0.01,0,0.02,0,0.03,0c0.76,0.09,1.49,0.08,2.21-0.04c0.72-0.13,1.39-0.38,1.96-0.77c0.82-0.58,1.4-1.49,1.53-2.44
					c0-0.02,0-0.04,0.01-0.06c0.07-0.52,0.55-0.89,1.09-0.81c0.54,0.08,0.93,0.54,0.86,1.06c-0.01,0.04-0.01,0.06-0.01,0.09
					C1822.13,111.06,1822.12,111.05,1822.08,111.04z M1819.81,97.6c-0.95-0.84-2.21-1.21-3.22-1.33c-0.03,0-0.04,0-0.07-0.01
					c-0.64-0.08-1.26-0.05-1.85,0.07c-0.6,0.12-1.16,0.34-1.61,0.67c-0.81,0.6-1.03,1.39-1.09,1.75c-0.09,0.51-0.59,0.87-1.16,0.79
					c-0.56-0.09-0.95-0.56-0.88-1.07c0.09-0.61,0.44-1.92,1.74-2.91c0.7-0.55,1.57-0.91,2.44-1.09c0.83-0.17,1.7-0.16,2.52-0.06
					c0.03,0,0.04,0,0.07,0.01c1.6,0.19,3.19,0.79,4.38,1.86c1.23,1.09,2.01,2.75,1.87,4.44c-0.04,0.52-0.53,0.89-1.1,0.84
					c-0.57-0.05-0.98-0.51-0.94-1.03c0.08-1.14-0.48-2.25-1.28-2.94C1819.71,97.59,1819.74,97.59,1819.81,97.6z M1812.96,101.74
					c0.89,1.06,2.14,1.72,2.97,2.1c1.35,0.66,3.13,1.29,4.43,2.46c0.3,0.26,0.6,0.55,0.84,0.86c0.31,0.4,0.19,0.99-0.25,1.28
					c-0.43,0.28-1.04,0.17-1.35-0.25c-0.17-0.21-0.37-0.42-0.58-0.61c-1.03-0.91-2.52-1.42-3.99-2.11
					c-1.31-0.62-2.65-1.44-3.66-2.63c-0.3-0.37-0.55-0.77-0.78-1.19c-0.25-0.46-0.07-1,0.42-1.23c0.49-0.23,1.08-0.05,1.33,0.41
					c0.17,0.3,0.37,0.6,0.61,0.87C1812.97,101.72,1812.96,101.73,1812.96,101.74z"/>
				<path class="st1" d="M1836.87,97.47c0.57,0.11,0.93,0.59,0.83,1.11c-1.56,7.75-2.34,11.62-3.9,19.37
					c-0.1,0.51-0.58,0.83-1.11,0.72c-0.53-0.1-0.85-0.57-0.75-1.09c1.49-7.76,2.24-11.64,3.74-19.4
					C1835.79,97.67,1836.3,97.36,1836.87,97.47z M1841.08,98.33c0.5,0.14,1.03,0.29,1.52,0.46c1.2,0.45,2.37,1.07,3.37,1.88
					c1.01,0.81,1.85,1.82,2.41,2.93c0.63,1.24,0.92,2.59,0.96,3.9c0.04,1.32-0.15,2.61-0.47,3.83c-0.01,0.02-0.01,0.04-0.02,0.06
					c-0.32,1.26-0.78,2.52-1.45,3.68c-0.69,1.19-1.62,2.3-2.78,3.12c-1.52,1.09-3.19,1.55-4.61,1.67c-0.79,0.07-1.61,0.06-2.37-0.09
					c-0.15-0.03-0.31-0.07-0.49-0.11c-0.15-0.03-0.28-0.06-0.46-0.1c-0.55-0.12-0.83-0.18-1.39-0.29c-0.52-0.11-0.85-0.58-0.74-1.1
					c0.1-0.51,0.59-0.83,1.12-0.72c0.58,0.12,0.88,0.18,1.46,0.31c0.16,0.03,0.28,0.06,0.4,0.09c0.16,0.03,0.28,0.06,0.4,0.09
					c0.61,0.12,1.27,0.12,1.91,0.07c1.1-0.1,2.43-0.47,3.62-1.31c0.91-0.64,1.66-1.54,2.25-2.54c0.57-0.97,0.98-2.05,1.27-3.18
					c0.01-0.02,0.01-0.04,0.01-0.06c0.28-1.11,0.43-2.25,0.39-3.37c-0.03-1.09-0.29-2.18-0.79-3.15c-0.44-0.87-1.1-1.66-1.9-2.29
					c-0.8-0.63-1.74-1.13-2.77-1.51c-0.42-0.16-0.81-0.27-1.24-0.4c-0.45-0.1-0.68-0.15-1.13-0.24c-0.57-0.12-0.92-0.6-0.82-1.11
					c0.11-0.51,0.63-0.82,1.2-0.7c0.47,0.1,0.71,0.15,1.18,0.25C1841.11,98.38,1841.1,98.36,1841.08,98.33z"/>
				<path class="st1" d="M1872.43,118.65c-2.03,5.54-7.98,8.56-13.45,6.82s-8.55-7.63-7.01-13.32c1.55-5.69,7.6-9.17,13.56-7.27
					S1874.46,113.11,1872.43,118.65z M1859.51,123.7c4.38,1.39,9.33-1.03,11.01-5.74c1.68-4.71-0.87-9.83-5.58-11.33
					c-4.71-1.5-9.74,1.22-11.09,6.04C1852.51,117.48,1855.13,122.31,1859.51,123.7z"/>
			</g>
		</g>
		<g>
			<text transform="matrix(1 0 0 1 1703.1626 257.0224)" class="st11 st12" style="font-size:85.0834px;">Cﾃグ</text>
		</g>
		<text transform="matrix(1 0 0 1 1752.9673 170.8183)" class="st14 st12" style="font-size:36.8704px;">PAR</text>
		<ellipse class="st2" cx="1842.01" cy="241.79" rx="12.85" ry="15.09"/>
		<ellipse class="st2" cx="1733.89" cy="241.93" rx="12.85" ry="15.09"/>
		<path class="st3" d="M1767.77,279.68h34.76c1.58,0,2.53,1.76,1.65,3.08l-18.05,26.15c-0.78,1.18-0.93,1.39-1.72,0.22l-18.28-26.37
			C1765.24,281.44,1766.18,279.68,1767.77,279.68z"/>
		<g>
			<path class="st6" d="M1715.67,310.14c0,0,4.23,29.29,27.99,33.52c23.76,4.23,41.82-16.76,41.49-33.52"/>
			<path class="st6" d="M1785.14,310.63c0,0,4.23,28.45,27.99,32.56c23.76,4.11,41.82-16.28,41.49-32.56h-0.53"/>
			<path class="st7" d="M1817.01,343.72c0.31,2.34,0.48,4.76,0.48,7.22c0,22.98-14.29,41.61-31.91,41.61s-31.91-18.63-31.91-41.61
				c0-2.29,0.14-4.54,0.42-6.73"/>
			<path class="st6" d="M1785.65,317.77c-0.18,0.49,0,42.47,0,42.47"/>
		</g>
		<text transform="matrix(0.9003 0.4353 -0.4353 0.9003 1697.5386 403.6456)" class="st1 st12" style="font-size:21.4567px;">lauro</text>
		<text transform="matrix(0.8888 -0.4583 0.4583 0.8888 1814.2218 436.3928)" class="st1 st12" style="font-size:21.4567px;">muller</text>
	</g>
	<g>
		<path class="st8" d="M2155.22,329.9l-43.07,22.38c-2.84,1.48-6.22,1.51-9.1,0.09l-45.45-22.51c-3.42-1.7-5.59-5.19-5.59-9.01
			V216.67c0-3.26,1.77-6.26,4.63-7.83c7.21-3.93,23-10.45,48.52-10.45c25.65,0,42.7,6.64,50.53,10.56c3.03,1.52,4.94,4.6,4.94,7.99
			v104.04C2160.64,324.73,2158.55,328.17,2155.22,329.9z"/>
		<g>
			<g>
				<path class="st1" d="M2064.92,188.41c0.29,0.03,0.5,0.27,0.45,0.54c-0.52,3.7-0.72,5.54-1.04,9.22
					c-0.03,0.27-0.28,0.48-0.55,0.45c-0.28-0.02-0.49-0.26-0.46-0.53c0.29-3.68,0.49-5.53,0.98-9.24
					C2064.36,188.59,2064.63,188.38,2064.92,188.41z M2068.95,192.61c0.08,0.27-0.08,0.53-0.36,0.62c-1.06,0.32-1.59,0.48-2.64,0.82
					c-0.28,0.09-0.56-0.04-0.64-0.31c-0.08-0.26,0.06-0.53,0.35-0.63c1.06-0.34,1.59-0.51,2.66-0.82
					C2068.6,192.21,2068.87,192.35,2068.95,192.61z M2072.98,195.78c-0.21,0.18-0.53,0.14-0.71-0.06c-2.87-3.54-4.38-5.27-7.52-8.66
					c-0.19-0.2-0.16-0.51,0.07-0.7c0.23-0.19,0.58-0.18,0.77,0.02c3.12,3.41,4.62,5.15,7.47,8.71
					C2073.23,195.29,2073.2,195.61,2072.98,195.78z"/>
				<path class="st1" d="M2075.59,195.15c-0.28,0.07-0.54-0.09-0.61-0.35c-1.01-4.05-1.51-6.07-2.52-10.12
					c-0.07-0.27,0.11-0.53,0.41-0.61c0.3-0.07,0.58,0.08,0.64,0.35c0.97,4.06,1.46,6.08,2.44,10.14
					C2076.02,194.82,2075.86,195.08,2075.59,195.15z M2074.79,186.44c0.23-0.17,0.57-0.15,0.75,0.06c2.35,2.64,3.49,3.98,5.66,6.7
					c0.16,0.22,0.12,0.52-0.1,0.68c-0.22,0.16-0.54,0.12-0.7-0.09c-2.19-2.71-3.33-4.05-5.7-6.67
					C2074.53,186.92,2074.56,186.61,2074.79,186.44z M2084.97,181.72c0.29,0.09,0.44,0.36,0.33,0.63c-1.41,3.6-2.05,5.41-3.22,9.03
					c-0.09,0.26-0.37,0.42-0.64,0.34c-0.27-0.08-0.43-0.35-0.34-0.61c1.15-3.63,1.78-5.45,3.17-9.06
					C2084.38,181.78,2084.69,181.63,2084.97,181.72z M2086.45,192.98c-0.28,0.04-0.53-0.13-0.57-0.4c-0.45-2.87-0.68-4.31-1.13-7.18
					c-0.04-0.27,0.15-0.52,0.45-0.57c0.3-0.05,0.56,0.13,0.6,0.4c0.43,2.87,0.64,4.31,1.07,7.19
					C2086.91,192.7,2086.72,192.94,2086.45,192.98z"/>
				<path class="st1" d="M2088.83,181.14c0.31-0.04,0.56,0.14,0.6,0.42c0.49,4.14,0.74,6.21,1.23,10.35
					c0.03,0.27-0.16,0.51-0.44,0.55c-0.28,0.03-0.52-0.15-0.56-0.42c-0.53-4.14-0.79-6.21-1.31-10.34
					C2088.32,181.42,2088.53,181.17,2088.83,181.14z"/>
				<path class="st1" d="M2099.01,181.49c-0.25-0.09-0.53-0.14-0.8-0.17c-0.27-0.03-0.54-0.05-0.81-0.03
					c-0.27,0.02-0.54,0.07-0.8,0.13c-0.27,0.07-0.53,0.15-0.77,0.27c-0.24,0.12-0.49,0.25-0.71,0.4c-0.27,0.18-0.51,0.4-0.72,0.63
					c-0.21,0.24-0.4,0.51-0.56,0.78s-0.29,0.57-0.38,0.87c-0.07,0.22-0.12,0.44-0.17,0.67c-0.05,0.23-0.08,0.47-0.09,0.7
					c-0.01,0.23-0.01,0.46,0.01,0.69c0,0,0.01,0.06,0.01,0.1c0,0,0.01,0.06,0.01,0.1c0.04,0.24,0.1,0.48,0.17,0.72
					c0.07,0.24,0.16,0.48,0.27,0.7c0.11,0.22,0.23,0.44,0.37,0.64c0.14,0.21,0.29,0.41,0.48,0.61c0.19,0.2,0.4,0.37,0.6,0.54
					c0.2,0.16,0.41,0.31,0.64,0.42c0.23,0.11,0.47,0.21,0.71,0.29c0.24,0.08,0.5,0.13,0.75,0.16c0.25,0.03,0.5,0.05,0.75,0.03
					c0.33-0.02,0.67-0.09,0.98-0.19c0.31-0.1,0.61-0.24,0.88-0.42c0.64-0.4,1.12-1.06,1.25-1.76c0.03-0.13,0.05-0.39,0.05-0.65
					c-0.02-0.66-0.03-1-0.06-1.66c-0.01-0.28,0.21-0.5,0.5-0.51c0.3-0.01,0.53,0.2,0.53,0.47c0.02,0.66,0.03,0.99,0.04,1.65
					c0,0.08,0.01,0.52-0.05,0.86c-0.21,1.05-0.9,1.9-1.72,2.42c-0.36,0.23-0.75,0.41-1.14,0.54c-0.39,0.13-0.8,0.21-1.22,0.23
					c-0.31,0.02-0.63,0.01-0.95-0.04c-0.32-0.04-0.62-0.12-0.93-0.21c-0.31-0.09-0.6-0.21-0.88-0.36c-0.28-0.14-0.55-0.31-0.8-0.5
					c-0.25-0.19-0.49-0.4-0.71-0.62c-0.22-0.22-0.42-0.47-0.6-0.73c-0.16-0.24-0.31-0.51-0.43-0.78c-0.13-0.26-0.24-0.55-0.32-0.83
					c-0.08-0.29-0.14-0.57-0.19-0.86c0-0.03-0.01-0.06-0.01-0.1c0-0.03-0.01-0.06-0.01-0.1c-0.03-0.27-0.04-0.55-0.03-0.83
					c0.01-0.28,0.03-0.54,0.08-0.81c0.04-0.27,0.1-0.54,0.19-0.8c0.11-0.35,0.27-0.7,0.45-1.03c0.18-0.33,0.4-0.64,0.67-0.95
					c0.26-0.3,0.56-0.58,0.89-0.81c0.26-0.19,0.57-0.36,0.88-0.49c0.32-0.14,0.63-0.24,0.97-0.33c0.34-0.09,0.68-0.14,1.02-0.16
					c0.34-0.02,0.69-0.01,1.03,0.04c0.35,0.05,0.68,0.11,1,0.21c0.33,0.1,0.65,0.23,0.94,0.38c0.26,0.13,0.34,0.44,0.19,0.68
					c-0.15,0.23-0.49,0.31-0.74,0.18c-0.23-0.12-0.49-0.22-0.75-0.31C2098.99,181.52,2099,181.51,2099.01,181.49z M2096.18,186.28
					c-0.02-0.28,0.21-0.51,0.5-0.52c1.31-0.08,1.97-0.12,3.28-0.17c0.3-0.01,0.53,0.21,0.54,0.48c0.01,0.28-0.22,0.5-0.51,0.51
					c-1.3,0.05-1.95,0.08-3.25,0.17C2096.44,186.76,2096.2,186.55,2096.18,186.28z"/>
				<path class="st1" d="M2114.97,186.13c-0.22,3.1-2.77,5.51-5.76,5.42c-3-0.08-5.4-2.63-5.45-5.74s2.5-5.75,5.77-5.66
					C2112.8,180.25,2115.19,183.03,2114.97,186.13z M2109.22,190.58c2.4,0.07,4.53-1.88,4.7-4.52c0.17-2.63-1.85-4.86-4.43-4.93
					c-2.58-0.07-4.72,2.04-4.7,4.68C2104.8,188.45,2106.82,190.51,2109.22,190.58z"/>
				<path class="st1" d="M2124.4,189.8c-0.12,0.82-0.61,1.51-1.23,1.93c-0.43,0.3-0.92,0.48-1.42,0.57c-0.5,0.08-1,0.09-1.47,0.03
					c-0.01,0-0.01,0-0.02,0c-0.56-0.07-1.11-0.21-1.62-0.44c-0.52-0.24-1.01-0.58-1.39-1.04c-0.52-0.62-0.8-1.43-0.73-2.24
					c0-0.03,0.01-0.06,0.01-0.1c0.04-0.27,0.3-0.46,0.58-0.42c0.29,0.04,0.49,0.29,0.46,0.56c0,0,0,0.05-0.01,0.07
					c-0.05,0.53,0.14,1.11,0.5,1.54c0.27,0.32,0.63,0.59,1.03,0.78c0.4,0.19,0.84,0.3,1.31,0.36c0.01,0,0.01,0,0.02,0
					c0.4,0.05,0.78,0.04,1.16-0.02c0.38-0.07,0.73-0.2,1.03-0.41c0.43-0.3,0.74-0.79,0.81-1.29c0-0.01,0-0.02,0-0.03
					c0.04-0.27,0.29-0.47,0.58-0.43c0.29,0.04,0.49,0.28,0.45,0.56c0,0.02,0,0.03-0.01,0.05
					C2124.43,189.82,2124.42,189.81,2124.4,189.8z M2123.21,182.72c-0.5-0.44-1.17-0.64-1.7-0.7c-0.01,0-0.02,0-0.04,0
					c-0.34-0.04-0.67-0.03-0.98,0.04c-0.31,0.06-0.61,0.18-0.85,0.35c-0.43,0.32-0.54,0.73-0.58,0.92
					c-0.05,0.27-0.31,0.46-0.61,0.42c-0.3-0.05-0.51-0.29-0.46-0.57c0.05-0.32,0.24-1.01,0.92-1.53c0.37-0.29,0.83-0.48,1.29-0.57
					c0.44-0.09,0.9-0.08,1.33-0.03c0.01,0,0.02,0,0.04,0c0.84,0.1,1.68,0.42,2.31,0.98c0.65,0.58,1.06,1.45,0.99,2.34
					c-0.02,0.28-0.28,0.47-0.58,0.44c-0.3-0.03-0.52-0.27-0.5-0.54c0.04-0.6-0.25-1.18-0.67-1.55
					C2123.15,182.71,2123.17,182.71,2123.21,182.72z M2119.59,184.9c0.47,0.56,1.13,0.91,1.56,1.11c0.71,0.35,1.65,0.68,2.33,1.3
					c0.16,0.14,0.31,0.29,0.44,0.46c0.16,0.21,0.1,0.52-0.13,0.67c-0.23,0.15-0.55,0.09-0.71-0.13c-0.09-0.11-0.2-0.22-0.3-0.32
					c-0.54-0.48-1.33-0.75-2.1-1.11c-0.69-0.33-1.4-0.76-1.93-1.39c-0.16-0.19-0.29-0.41-0.41-0.63c-0.13-0.24-0.04-0.53,0.22-0.65
					c0.26-0.12,0.57-0.03,0.7,0.22c0.09,0.16,0.2,0.32,0.32,0.46C2119.6,184.89,2119.6,184.89,2119.59,184.9z"/>
				<path class="st1" d="M2132.21,182.65c0.3,0.06,0.49,0.31,0.44,0.59c-0.82,4.09-1.24,6.13-2.06,10.22
					c-0.05,0.27-0.31,0.44-0.58,0.38c-0.28-0.05-0.45-0.3-0.4-0.57c0.79-4.1,1.18-6.14,1.98-10.24
					C2131.64,182.75,2131.91,182.59,2132.21,182.65z M2134.43,183.1c0.26,0.07,0.54,0.15,0.8,0.24c0.63,0.24,1.25,0.56,1.78,0.99
					c0.53,0.43,0.98,0.96,1.27,1.55c0.33,0.65,0.49,1.37,0.51,2.06c0.02,0.69-0.08,1.37-0.25,2.02c0,0.01,0,0.02-0.01,0.03
					c-0.17,0.66-0.41,1.33-0.77,1.94c-0.36,0.63-0.85,1.21-1.46,1.65c-0.8,0.57-1.68,0.82-2.43,0.88c-0.42,0.04-0.85,0.03-1.25-0.05
					c-0.08-0.02-0.16-0.04-0.26-0.06c-0.08-0.02-0.15-0.03-0.24-0.05c-0.29-0.06-0.44-0.09-0.73-0.15
					c-0.28-0.06-0.45-0.31-0.39-0.58c0.06-0.27,0.31-0.44,0.59-0.38c0.31,0.06,0.46,0.1,0.77,0.16c0.08,0.02,0.15,0.03,0.21,0.05
					c0.08,0.02,0.15,0.03,0.21,0.05c0.32,0.06,0.67,0.06,1,0.04c0.58-0.05,1.28-0.25,1.91-0.69c0.48-0.34,0.88-0.81,1.19-1.34
					c0.3-0.51,0.52-1.08,0.67-1.68c0-0.01,0-0.02,0.01-0.03c0.15-0.59,0.23-1.19,0.21-1.78c-0.02-0.57-0.15-1.15-0.41-1.66
					c-0.23-0.46-0.58-0.88-1-1.21c-0.42-0.33-0.92-0.59-1.46-0.8c-0.22-0.08-0.43-0.14-0.65-0.21c-0.24-0.05-0.36-0.08-0.6-0.13
					c-0.3-0.06-0.49-0.32-0.43-0.59c0.06-0.27,0.33-0.43,0.63-0.37c0.25,0.05,0.37,0.08,0.62,0.13
					C2134.45,183.13,2134.44,183.12,2134.43,183.1z"/>
				<path class="st1" d="M2150.97,193.82c-1.07,2.92-4.21,4.52-7.09,3.6c-2.88-0.92-4.51-4.03-3.7-7.03c0.82-3,4.01-4.84,7.15-3.84
					C2150.48,187.55,2152.04,190.9,2150.97,193.82z M2144.16,196.49c2.31,0.73,4.92-0.54,5.81-3.03c0.89-2.49-0.46-5.19-2.94-5.98
					c-2.48-0.79-5.14,0.64-5.85,3.18C2140.46,193.21,2141.84,195.75,2144.16,196.49z"/>
			</g>
		</g>
		<g>
			<text transform="matrix(1 0 0 1 2061.6431 266.8088)" class="st11 st12" style="font-size:44.8895px;">Cﾃグ</text>
		</g>
		<text transform="matrix(1 0 0 1 2087.9204 221.3273)" class="st14 st12" style="font-size:19.4526px;">PAR</text>
		<ellipse class="st2" cx="2134.9" cy="259.02" rx="6.78" ry="7.96"/>
		<ellipse class="st2" cx="2077.85" cy="258.85" rx="6.78" ry="7.96"/>
		<path class="st3" d="M2095.73,278.76h18.34c0.84,0,1.33,0.93,0.87,1.63l-9.52,13.8c-0.41,0.62-0.49,0.74-0.91,0.11l-9.65-13.91
			C2094.39,279.69,2094.89,278.76,2095.73,278.76z"/>
		<g>
			<path class="st9" d="M2068.24,294.83c0,0,2.23,15.45,14.77,17.68c12.53,2.23,22.06-8.84,21.89-17.68"/>
			<path class="st9" d="M2104.9,295.09c0,0,2.23,15.01,14.77,17.18c12.53,2.17,22.06-8.59,21.89-17.18h-0.28"/>
			<path class="st8" d="M2121.71,312.55c0.17,1.24,0.25,2.51,0.25,3.81c0,12.13-7.54,21.96-16.84,21.96s-16.84-9.83-16.84-21.96
				c0-1.21,0.07-2.4,0.22-3.55"/>
			<path class="st9" d="M2105.16,298.86c-0.1,0.26,0,22.41,0,22.41"/>
		</g>
		<text transform="matrix(0.9003 0.4353 -0.4353 0.9003 2058.6863 344.1972)" class="st1 st12" style="font-size:11.3204px;">lauro</text>
		<text transform="matrix(0.8888 -0.4583 0.4583 0.8888 2120.217 361.4416)" class="st1 st12" style="font-size:11.3204px;">muller</text>
	</g>
	<path class="st10" d="M521.78,465.06l-117.95,61.27c-7.79,4.05-17.04,4.14-24.91,0.24l-124.46-61.64
		c-9.38-4.64-15.31-14.2-15.31-24.67V154.98c0-8.93,4.85-17.16,12.69-21.43c19.75-10.77,62.99-28.6,132.87-28.6
		c70.24,0,116.93,18.18,138.38,28.92c8.29,4.15,13.54,12.6,13.54,21.87v284.89C536.62,450.9,530.9,460.32,521.78,465.06z"/>
	<g>
		<g>
			<path class="st1" d="M274.43,77.53c0.8,0.08,1.37,0.74,1.24,1.48c-1.41,10.13-1.98,15.18-2.84,25.26
				c-0.09,0.74-0.77,1.3-1.52,1.24c-0.76-0.07-1.33-0.71-1.25-1.45c0.8-10.09,1.34-15.15,2.7-25.29
				C272.88,78.03,273.63,77.46,274.43,77.53z M285.46,89.05c0.21,0.73-0.21,1.46-0.98,1.69c-2.9,0.86-4.34,1.31-7.23,2.24
				c-0.77,0.25-1.53-0.11-1.76-0.84c-0.23-0.72,0.18-1.47,0.95-1.71c2.91-0.93,4.36-1.38,7.28-2.25
				C284.49,87.94,285.25,88.32,285.46,89.05z M296.51,97.72c-0.58,0.48-1.46,0.39-1.95-0.17c-6.55-8.13-13.47-16.08-20.6-23.71
				c-0.53-0.53-0.44-1.41,0.19-1.93c0.63-0.52,1.58-0.49,2.11,0.05c7.09,7.67,13.96,15.67,20.46,23.85
				C297.2,96.38,297.09,97.24,296.51,97.72z"/>
			<path class="st1" d="M303.62,95.99c-0.75,0.19-1.47-0.23-1.66-0.97c-2.3-9.23-4.6-18.47-6.89-27.71
				c-0.18-0.74,0.31-1.46,1.13-1.66c0.82-0.2,1.59,0.21,1.76,0.95c2.22,9.25,4.45,18.51,6.67,27.76
				C304.82,95.1,304.38,95.8,303.62,95.99z M301.46,72.14c0.64-0.47,1.56-0.41,2.04,0.17c6.45,7.22,9.55,10.89,15.51,18.36
				c0.44,0.59,0.33,1.43-0.28,1.87s-1.47,0.34-1.92-0.25c-5.99-7.43-9.11-11.08-15.6-18.26C300.72,73.46,300.82,72.61,301.46,72.14z
				 M329.35,59.21c0.79,0.24,1.2,0.99,0.91,1.71c-3.86,9.86-5.62,14.81-8.82,24.74c-0.24,0.73-1.01,1.14-1.76,0.92
				c-0.75-0.22-1.18-0.95-0.94-1.68c3.14-9.95,4.88-14.92,8.69-24.81C327.71,59.38,328.56,58.97,329.35,59.21z M333.37,90.05
				c-0.76,0.12-1.44-0.36-1.56-1.11c-1.24-7.86-1.86-11.79-3.1-19.65c-0.12-0.75,0.41-1.42,1.23-1.55s1.52,0.35,1.64,1.1
				c1.17,7.87,1.76,11.81,2.94,19.68C334.64,89.27,334.14,89.94,333.37,90.05z"/>
			<path class="st1" d="M339.89,57.63c0.84-0.1,1.54,0.4,1.63,1.15c1.12,9.45,2.24,18.9,3.37,28.35c0.09,0.75-0.43,1.4-1.2,1.49
				c-0.77,0.09-1.43-0.41-1.52-1.16c-1.2-9.44-2.4-18.88-3.59-28.32C338.49,58.39,339.06,57.73,339.89,57.63z"/>
			<path class="st1" d="M367.78,58.58c-0.7-0.23-1.44-0.37-2.18-0.47c-0.74-0.09-1.48-0.14-2.22-0.1c-0.74,0.04-1.47,0.18-2.19,0.36
				c-0.73,0.18-1.45,0.41-2.11,0.73c-0.67,0.32-1.33,0.68-1.93,1.08c-0.75,0.5-1.41,1.1-1.97,1.73c-0.58,0.65-1.1,1.39-1.52,2.15
				c-0.42,0.75-0.79,1.55-1.05,2.38c-0.19,0.6-0.33,1.19-0.46,1.83c-0.13,0.64-0.22,1.28-0.25,1.91c-0.04,0.63-0.03,1.26,0.03,1.88
				c0,0,0.02,0.18,0.02,0.27c0,0,0.02,0.18,0.03,0.27c0.11,0.66,0.27,1.32,0.47,1.97c0.2,0.65,0.45,1.3,0.74,1.9
				c0.29,0.6,0.64,1.2,1,1.74c0.38,0.58,0.8,1.14,1.32,1.68c0.51,0.54,1.09,1.02,1.66,1.47c0.54,0.43,1.13,0.85,1.76,1.16
				c0.62,0.31,1.29,0.57,1.95,0.79c0.66,0.22,1.36,0.35,2.05,0.44c0.69,0.09,1.39,0.13,2.07,0.09c0.91-0.06,1.82-0.24,2.68-0.51
				c0.86-0.27,1.66-0.66,2.42-1.15c1.74-1.11,3.06-2.9,3.42-4.83c0.08-0.36,0.15-1.08,0.12-1.79c-0.06-1.82-0.09-2.73-0.16-4.55
				c-0.03-0.76,0.57-1.36,1.38-1.38c0.81-0.03,1.44,0.54,1.46,1.3c0.05,1.8,0.07,2.7,0.12,4.5c0.01,0.22,0.04,1.43-0.12,2.37
				c-0.57,2.87-2.48,5.2-4.7,6.64c-0.98,0.62-2.05,1.12-3.12,1.48c-1.07,0.37-2.2,0.56-3.33,0.63c-0.86,0.05-1.73,0.02-2.6-0.1
				c-0.87-0.12-1.71-0.33-2.55-0.58c-0.84-0.25-1.65-0.59-2.41-0.97c-0.77-0.39-1.5-0.86-2.19-1.38c-0.69-0.52-1.34-1.09-1.96-1.7
				c-0.61-0.61-1.16-1.28-1.63-2c-0.44-0.66-0.84-1.4-1.19-2.12c-0.35-0.73-0.67-1.5-0.89-2.29c-0.22-0.78-0.4-1.57-0.53-2.37
				c-0.01-0.09-0.02-0.18-0.03-0.27c-0.01-0.09-0.02-0.18-0.03-0.27c-0.07-0.75-0.11-1.51-0.09-2.28c0.02-0.76,0.09-1.49,0.21-2.22
				c0.12-0.73,0.28-1.49,0.51-2.2c0.31-0.96,0.74-1.91,1.24-2.81c0.5-0.9,1.11-1.76,1.82-2.59c0.71-0.82,1.54-1.6,2.42-2.22
				c0.72-0.51,1.55-0.98,2.42-1.35c0.86-0.38,1.73-0.66,2.66-0.91c0.93-0.24,1.86-0.39,2.8-0.45c0.94-0.06,1.88-0.02,2.83,0.11
				c0.95,0.13,1.85,0.31,2.75,0.58c0.9,0.27,1.76,0.63,2.56,1.05c0.7,0.37,0.93,1.21,0.51,1.85c-0.42,0.64-1.34,0.85-2.04,0.49
				c-0.64-0.33-1.35-0.61-2.05-0.84C367.72,58.67,367.74,58.64,367.78,58.58z M360.01,71.7c-0.05-0.76,0.57-1.38,1.38-1.44
				c3.59-0.23,5.39-0.32,8.98-0.46c0.81-0.04,1.45,0.56,1.48,1.32c0.03,0.76-0.61,1.36-1.41,1.4c-3.56,0.14-5.35,0.23-8.91,0.45
				C360.72,73.03,360.07,72.46,360.01,71.7z"/>
			<path class="st1" d="M411.48,71.3c-0.61,8.5-7.58,15.08-15.78,14.85c-8.21-0.23-14.8-7.19-14.92-15.71
				c-0.12-8.52,6.86-15.76,15.81-15.51C405.54,55.19,412.09,62.8,411.48,71.3z M395.73,83.47c6.58,0.18,12.41-5.16,12.87-12.37
				c0.46-7.21-5.06-13.3-12.13-13.5c-7.07-0.2-12.93,5.57-12.88,12.8C383.63,77.64,389.15,83.29,395.73,83.47z"/>
			<path class="st1" d="M437.31,81.36c-0.33,2.25-1.68,4.13-3.37,5.29c-1.18,0.83-2.53,1.32-3.89,1.55
				c-1.36,0.23-2.73,0.24-4.04,0.09c-0.02,0-0.03,0-0.05-0.01c-1.53-0.18-3.05-0.58-4.44-1.2c-1.43-0.65-2.77-1.6-3.81-2.83
				c-1.42-1.7-2.2-3.91-2.01-6.13c0.01-0.09,0.01-0.18,0.02-0.27c0.11-0.75,0.81-1.27,1.6-1.16c0.79,0.11,1.34,0.79,1.27,1.55
				c0,0-0.01,0.13-0.02,0.18c-0.15,1.45,0.37,3.04,1.37,4.21c0.75,0.88,1.73,1.61,2.83,2.13c1.1,0.52,2.3,0.83,3.58,0.98
				c0.02,0,0.03,0,0.05,0.01c1.09,0.13,2.15,0.12,3.19-0.06c1.04-0.18,2.01-0.55,2.83-1.12c1.18-0.83,2.02-2.16,2.21-3.53
				c0.01-0.04,0.01-0.05,0.01-0.09c0.1-0.75,0.79-1.29,1.58-1.18c0.79,0.11,1.35,0.78,1.24,1.53c-0.01,0.05-0.01,0.08-0.02,0.13
				C437.39,81.4,437.36,81.38,437.31,81.36z M434.03,61.95c-1.37-1.21-3.19-1.75-4.66-1.92c-0.04,0-0.06-0.01-0.1-0.01
				c-0.93-0.11-1.82-0.07-2.68,0.1c-0.86,0.18-1.68,0.49-2.32,0.96c-1.17,0.87-1.49,2.01-1.58,2.53c-0.13,0.74-0.86,1.26-1.67,1.14
				c-0.81-0.12-1.38-0.8-1.27-1.55c0.13-0.88,0.64-2.77,2.51-4.2c1.02-0.8,2.27-1.32,3.53-1.57c1.2-0.24,2.46-0.23,3.64-0.09
				c0.04,0,0.06,0.01,0.1,0.01c2.31,0.27,4.61,1.14,6.33,2.68c1.77,1.58,2.91,3.97,2.71,6.41c-0.06,0.75-0.77,1.29-1.59,1.22
				c-0.82-0.07-1.41-0.74-1.36-1.49c0.12-1.64-0.69-3.24-1.84-4.25C433.88,61.93,433.93,61.93,434.03,61.95z M424.14,67.93
				c1.29,1.53,3.1,2.49,4.28,3.03c1.95,0.95,4.53,1.86,6.4,3.56c0.43,0.37,0.86,0.79,1.21,1.25c0.44,0.58,0.27,1.44-0.35,1.84
				c-0.63,0.41-1.5,0.24-1.94-0.36c-0.24-0.3-0.53-0.61-0.83-0.88c-1.49-1.32-3.64-2.05-5.76-3.05c-1.89-0.89-3.82-2.08-5.29-3.79
				c-0.43-0.54-0.8-1.12-1.13-1.72c-0.36-0.66-0.1-1.44,0.61-1.78c0.71-0.33,1.56-0.07,1.93,0.59c0.25,0.43,0.54,0.86,0.88,1.26
				C424.14,67.9,424.14,67.91,424.14,67.93z"/>
			<path class="st1" d="M458.68,61.76c0.83,0.16,1.35,0.86,1.2,1.6c-1.88,9.33-3.76,18.66-5.63,27.99c-0.15,0.74-0.84,1.19-1.6,1.05
				c-0.76-0.15-1.23-0.83-1.09-1.57c1.8-9.35,3.6-18.69,5.41-28.03C457.11,62.05,457.85,61.6,458.68,61.76z M464.76,63.01
				c0.72,0.2,1.49,0.41,2.19,0.66c1.74,0.66,3.42,1.54,4.87,2.71c1.45,1.17,2.67,2.62,3.49,4.24c0.9,1.79,1.33,3.74,1.39,5.64
				c0.06,1.9-0.22,3.77-0.68,5.54c-0.01,0.03-0.01,0.05-0.02,0.09c-0.47,1.81-1.13,3.65-2.1,5.31c-1,1.71-2.34,3.32-4.02,4.51
				c-2.2,1.57-4.61,2.23-6.66,2.41c-1.15,0.1-2.33,0.09-3.43-0.13c-0.22-0.04-0.45-0.1-0.71-0.15c-0.22-0.05-0.4-0.09-0.67-0.14
				c-0.8-0.17-1.2-0.26-2-0.42c-0.76-0.16-1.22-0.84-1.07-1.59c0.15-0.74,0.85-1.19,1.62-1.03c0.84,0.18,1.27,0.26,2.11,0.45
				c0.23,0.05,0.4,0.09,0.58,0.13c0.22,0.05,0.41,0.09,0.58,0.13c0.88,0.17,1.84,0.18,2.75,0.11c1.59-0.14,3.51-0.67,5.23-1.89
				c1.31-0.92,2.41-2.22,3.25-3.66c0.82-1.4,1.42-2.96,1.83-4.6c0.01-0.03,0.01-0.05,0.02-0.09c0.4-1.6,0.62-3.25,0.57-4.87
				c-0.05-1.57-0.42-3.15-1.14-4.55c-0.64-1.26-1.59-2.4-2.74-3.31c-1.15-0.91-2.51-1.63-4-2.18c-0.6-0.22-1.17-0.39-1.79-0.57
				c-0.66-0.14-0.98-0.21-1.64-0.35c-0.82-0.17-1.33-0.87-1.18-1.61s0.9-1.18,1.73-1.01c0.68,0.14,1.02,0.21,1.7,0.36
				C464.81,63.07,464.79,63.05,464.76,63.01z"/>
			<path class="st1" d="M510.06,92.36c-2.93,8-11.53,12.37-19.43,9.86c-7.9-2.51-12.36-11.03-10.12-19.25
				c2.23-8.22,10.98-13.24,19.6-10.51C508.72,75.2,512.99,84.36,510.06,92.36z M491.39,99.65c6.33,2.01,13.48-1.48,15.91-8.29
				c2.43-6.81-1.26-14.21-8.06-16.37c-6.81-2.16-14.07,1.76-16.02,8.72C481.27,90.67,485.06,97.64,491.39,99.65z"/>
		</g>
	</g>
	<g>
		<text transform="matrix(1 0 0 1 265.5253 292.2914)" class="st11 st12 st13">Cﾃグ</text>
	</g>
	<text transform="matrix(1 0 0 1 337.4814 167.7455)" class="st14 st12 st15">PAR</text>
	<ellipse class="st2" cx="466.13" cy="271.27" rx="18.57" ry="21.81"/>
	<ellipse class="st2" cx="309.91" cy="270.48" rx="18.57" ry="21.81"/>
	<path class="st3" d="M358.86,325.02h50.21c2.29,0,3.65,2.55,2.38,4.45l-26.08,37.78c-1.13,1.7-1.35,2.01-2.48,0.31l-26.42-38.1
		C355.21,327.57,356.58,325.02,358.86,325.02z"/>
	<g>
		<path class="st4" d="M283.59,369.04c0,0,6.11,42.32,40.43,48.43c34.32,6.11,60.42-24.21,59.95-48.43"/>
		<path class="st4" d="M383.97,369.74c0,0,6.11,41.1,40.43,47.04s60.42-23.52,59.95-47.04h-0.76"/>
		<path class="st0" d="M430,417.55c0.45,3.39,0.69,6.87,0.69,10.43c0,33.21-20.64,60.12-46.11,60.12
			c-25.46,0-46.11-26.92-46.11-60.12c0-3.31,0.21-6.56,0.6-9.72"/>
		<path class="st4" d="M384.71,380.05c-0.26,0.71,0,61.36,0,61.36"/>
	</g>
	<text transform="matrix(0.9003 0.4353 -0.4353 0.9003 257.3592 504.0919)" class="st1 st12 st16">lauro</text>
	<text transform="matrix(0.8888 -0.4583 0.4583 0.8888 426.005 551.4561)" class="st1 st12 st16">muller</text>
</g>
</svg>
